<svg fill="#ffffff" version="1.1" id="Capa_1" xmlns="http://www.w3.org/2000/svg" xmlns:xlink="http://www.w3.org/1999/xlink"
	 width="800px" height="800px" viewBox="0 0 217.847 217.848"
	 xml:space="preserve">
<g>
	<g>
		<path d="M131.59,109.94c-2.874-2.877-6.249-5.134-10.02-6.708c-0.004-0.003-0.014-0.007-0.021-0.01
			c-3.799-1.576-7.816-2.379-11.95-2.379c-8.303,0-16.106,3.23-21.976,9.097c-8.937,8.938-11.572,22.258-6.718,33.927
			c1.565,3.771,3.826,7.152,6.714,10.048c2.869,2.871,6.24,5.126,10.015,6.697c0.01,0.007,0.017,0.017,0.027,0.017
			c3.802,1.578,7.825,2.382,11.958,2.382c0.003,0,0.003,0,0.003,0c8.296,0,16.098-3.23,21.967-9.096
			c8.938-8.938,11.574-22.255,6.722-33.924c-0.007-0.004,0-0.011-0.007-0.014C136.738,116.206,134.475,112.828,131.59,109.94z
			 M92.578,114.896c4.546-4.541,10.591-7.043,17.018-7.043c1.331,0,2.646,0.104,3.939,0.318l-27.689,27.688
			C84.582,128.297,86.99,120.487,92.578,114.896z M88.364,143.258l32.577-32.579c2.102,1.116,4.011,2.533,5.694,4.217
			c1.688,1.69,3.101,3.6,4.216,5.694l-16.286,16.289l-16.287,16.29c-2.1-1.115-4.009-2.529-5.695-4.217
			C90.889,147.263,89.478,145.353,88.364,143.258z M126.635,148.96c-5.482,5.479-13.403,7.956-20.957,6.721l23.305-23.305
			l4.388-4.388C134.636,135.552,132.234,143.36,126.635,148.96z"/>
		<path d="M108.631,15.728c-25.056,0-51.688,7.691-51.688,21.946v62.205c0,0.478,0.134,0.943,0.351,1.371
			c3.227,60.622,30.187,73.386,52.316,73.386c1.481,0,2.95-0.078,4.395-0.223c29.93-2.299,45.08-28.424,46.202-79.782
			c0.075-0.284,0.113-0.582,0.113-0.884V37.678C160.316,23.419,133.688,15.728,108.631,15.728z M109.61,167.628
			c-1.276,0-2.491-0.1-3.715-0.195c-17.945-1.865-31.983-17.077-31.983-35.505c0-19.688,16.014-35.704,35.702-35.704
			c19.684,0,35.7,16.015,35.7,35.704C145.314,151.608,129.297,167.628,109.61,167.628z M153.308,92.934
			c-0.059,0.243-0.09,0.495-0.097,0.751c-0.198,10.604-1.04,19.644-2.334,27.426c-4.812-18.323-21.464-31.895-41.268-31.895
			c-21.356,0-39.048,15.773-42.171,36.275c-1.655-7.597-2.748-16.156-3.207-25.793c-0.017-0.378-0.118-0.742-0.28-1.09V37.674
			c0-6.237,17-14.938,44.68-14.938c27.682,0,44.68,8.701,44.68,14.938v55.259H153.308z"/>
		<path d="M142.494,34.167h-67.72c-5.797,0-10.513,4.717-10.513,10.513v32.415c0,5.797,4.716,10.513,10.513,10.513h67.72
			c5.797,0,10.513-4.715,10.513-10.513V44.68C153.006,38.884,148.294,34.167,142.494,34.167z M145.998,77.094
			c0,1.932-1.567,3.504-3.504,3.504h-67.72c-1.932,0-3.504-1.573-3.504-3.504V44.68c0-1.93,1.572-3.504,3.504-3.504h67.72
			c1.937,0,3.504,1.574,3.504,3.504V77.094z"/>
		<path d="M92.25,46.976H76.042c-1.935,0-3.504,1.569-3.504,3.504v20.819c0,1.935,1.569,3.504,3.504,3.504H92.25
			c1.934,0,3.504-1.569,3.504-3.504V50.48C95.753,48.545,94.183,46.976,92.25,46.976z M88.745,67.794h-9.199v-13.81h9.199V67.794z"
			/>
		<path d="M116.739,46.976h-16.209c-1.934,0-3.504,1.569-3.504,3.504v20.819c0,1.935,1.571,3.504,3.504,3.504h16.209
			c1.937,0,3.504-1.569,3.504-3.504V50.48C120.243,48.545,118.675,46.976,116.739,46.976z M113.232,67.794h-9.198v-13.81h9.198
			V67.794z"/>
		<path d="M141.337,46.965h-16.208c-1.937,0-3.504,1.569-3.504,3.504v20.819c0,1.934,1.567,3.504,3.504,3.504h16.208
			c1.937,0,3.504-1.571,3.504-3.504V50.47C144.841,48.535,143.274,46.965,141.337,46.965z M137.833,67.784h-9.198v-13.81h9.198
			V67.784z"/>
		<path d="M137.193,179.301H76.042c-1.935,0-3.504,1.567-3.504,3.504v12.851c0,1.94,1.569,3.504,3.504,3.504h61.151
			c1.937,0,3.504-1.563,3.504-3.504v-12.851C140.697,180.868,139.126,179.301,137.193,179.301z M133.688,192.15H79.546v-5.842
			h54.142V192.15z"/>
		<path d="M108.925,0c-30.01,0-61.91,8.803-61.91,25.111v167.624c0,16.311,31.9,25.112,61.91,25.112
			c30.01,0,61.907-8.802,61.907-25.112V25.111C170.83,8.803,138.935,0,108.925,0z M163.821,192.735
			c0,8.546-23.477,18.104-54.898,18.104c-31.422,0-54.902-9.558-54.902-18.104V25.111c0-8.543,23.479-18.103,54.902-18.103
			c31.422,0,54.898,9.56,54.898,18.103V192.735z"/>
	</g>
</g>
</svg>