<?xml version="1.0" encoding="UTF-8" standalone="no"?>
<svg
   width="2650"
   height="650"
   viewBox="0 0 2650 650"
   version="1.1"
   id="svg6"
   xmlns="http://www.w3.org/2000/svg"
   xmlns:svg="http://www.w3.org/2000/svg">
  <defs
     id="defs6" />
  <path
     fill-rule="evenodd"
     fill="#ffffff"
     fill-opacity="1"
     d="M 2232.5853,156.44039 C 1984.1048,102.42867 1700.515,5.1903909 1373.7142,10.600551 1172.9447,26.799771 907.36261,199.65914 811.93292,213.15914 412.21027,194.2607 215.09111,254.19853 53.566141,391.82733 38.469395,406.65373 20.555536,428.40973 8.4368269,446.78023 130.82047,418.95353 232.83912,414.87763 329.83136,323.89743 c 11.70312,19.8008 -6.30078,67.9727 -14.85547,97.2305 54.01953,-85.5274 194.46094,-160.25 324.10547,-102.6407 139.54297,-40.5078 915.76324,-30.8093 915.76324,-30.8093 190.7562,-0.3248 430.9008,-14.0039 653.6821,26.9531 98.1289,-41.4101 136.586,-38.4524 223.918,14.6687 38.8789,37.1289 49.4297,60.0782 74.1406,128.3711 -2.6016,-50.3711 -8.043,-97.9101 -33.3125,-142.6211 56.6094,-34.8593 101.2422,-57.75 169.8399,-104.58981 -286.2891,-69.32031 -391.5409,-27.91015 -602.2088,-32.41015 z M 1849.7337,128.7607 c -52.6601,13.50782 -89.121,27.00782 -125.5898,52.66797 -18.8984,13.05078 -552.3203,18.01172 -773.79692,22.96094 92.38342,-38.63362 229.55402,-114.506392 347.00422,-145.723109 204.8086,-26.10938 425.8943,25.980917 552.3825,70.094199"
     id="path1" />
  <g
     id="text7"
     style="font-size:327.952px;line-height:0;-inkscape-font-specification:Normal;letter-spacing:-20.5654px;stroke-width:0.964566"
     aria-label="JMVAutoteknik"
     transform="translate(-36.356142,-761.66117)">
    <path
       style="font-style:italic;font-weight:bold;line-height:1096.82px;-inkscape-font-specification:'sans-serif Bold Italic';letter-spacing:-28.7916px;fill:#ffffff"
       d="m 528.6193,1319.5595 q -9.7681,41.9548 -36.67041,62.1315 -26.90231,20.1767 -73.66109,20.1767 -17.13421,0 -30.90564,-1.281 -13.77142,-1.1209 -24.66045,-3.3628 l 11.36943,-49.3209 h 5.76478 q 6.88571,2.7222 14.57209,5.2844 7.84651,2.5621 20.81726,2.5621 24.50032,0 36.67042,-11.6897 12.17009,-11.6897 19.85647,-45.4777 l 21.93819,-94.9588 H 439.2652 l 10.08836,-43.8764 h 116.25642 z m 260.88866,78.6252 h -61.491 l 36.02988,-155.9694 -65.49432,99.9229 h -42.4352 l -21.13753,-106.4883 -37.47107,162.5348 h -58.28835 l 55.08569,-238.4378 h 70.61857 l 26.10165,119.6192 81.0272,-119.6192 h 72.54016 z m 303.16374,-238.4378 -142.03785,238.4378 h -68.85711 l -31.86643,-238.4378 h 62.9322 l 19.0558,170.2212 94.95879,-170.2212 z"
       id="path2" />
    <path
       style="font-style:italic;font-size:257.218px;line-height:1096.82px;-inkscape-font-specification:'sans-serif Italic';letter-spacing:0px;fill:#ffffff"
       d="m 1191.8297,1398.1847 h -25.2445 l -6.2797,-52.6242 h -80.6318 l -30.6452,52.6242 h -26.2492 l 111.2769,-187.0105 h 32.9058 z m -34.2873,-72.9705 -11.6803,-92.3122 -54.2569,92.3122 z m 207.2313,-67.3188 -32.4035,140.2893 h -23.6118 l 3.6423,-15.5738 q -13.4387,9.1685 -25.119,14.3178 -11.5547,5.1494 -24.4909,5.1494 -18.0857,0 -28.2588,-9.0428 -10.1732,-9.1684 -10.1732,-26.6261 0,-4.2702 0.5024,-8.2892 0.6279,-4.0191 1.6327,-9.1684 l 20.9743,-91.0562 h 23.6118 l -18.4624,79.8782 q -1.1304,4.8982 -2.1351,11.178 -1.0048,6.2797 -1.0048,9.9219 0,10.8012 5.4006,16.2018 5.5262,5.4005 18.7136,5.4005 9.294,0 21.2255,-5.4005 12.0571,-5.4006 22.2303,-12.4339 l 24.1142,-104.746 z m 119.315,0 -4.2703,19.0904 h -48.7307 l -15.0714,64.6813 q -1.2559,4.8982 -2.2607,11.3035 -1.0047,6.2797 -1.0047,10.0476 0,9.1684 4.647,13.6898 4.647,4.3958 17.2064,4.3958 5.1494,0 12.1827,-1.7583 7.1589,-1.7583 9.6708,-2.7631 h 1.256 l -4.3959,20.3463 q -7.0333,1.7584 -15.0713,2.8887 -7.9125,1.1304 -14.0666,1.1304 -17.3321,0 -26.8773,-7.5357 -9.4196,-7.6613 -9.4196,-24.1142 0,-4.019 0.5024,-7.9125 0.628,-4.019 1.6327,-9.0428 l 17.4577,-75.3568 h -15.9506 l 4.2703,-19.0904 h 15.9505 l 9.4196,-40.3159 h 23.6118 l -9.4196,40.3159 z m 134.0096,49.6099 q 0,18.8392 -5.7774,36.1713 -5.7774,17.3321 -16.3273,30.1427 -10.9267,13.3131 -25.2445,20.8487 -14.3178,7.4101 -33.4082,7.4101 -24.9934,0 -39.06,-14.1922 -13.941,-14.3178 -13.941,-39.4367 0,-18.8392 5.6517,-35.9201 5.7774,-17.0809 16.5786,-30.3939 10.4243,-12.8107 25.4957,-20.472 15.1969,-7.6612 33.157,-7.6612 24.2398,0 38.5576,13.8154 14.3178,13.8154 14.3178,39.6879 z m -38.432,53.001 q 6.7821,-10.0476 10.2987,-23.235 3.6423,-13.1875 3.6423,-27.8821 0,-17.5832 -8.4149,-26.6261 -8.4148,-9.0428 -23.7374,-9.0428 -12.1826,0 -21.8534,5.903 -9.6708,5.7773 -16.7041,15.9505 -6.7821,9.922 -10.4244,23.235 -3.6422,13.3131 -3.6422,27.6309 0,17.332 8.4148,26.626 8.4148,9.2941 23.863,9.2941 12.0571,0 21.8535,-5.7774 9.7964,-5.7774 16.7041,-16.0761 z m 161.8916,-102.6109 -4.2702,19.0904 h -48.7308 l -15.0713,64.6813 q -1.256,4.8982 -2.2607,11.3035 -1.0048,6.2797 -1.0048,10.0476 0,9.1684 4.647,13.6898 4.647,4.3958 17.2065,4.3958 5.1494,0 12.1827,-1.7583 7.1589,-1.7583 9.6708,-2.7631 h 1.2559 l -4.3958,20.3463 q -7.0333,1.7584 -15.0714,2.8887 -7.9124,1.1304 -14.0666,1.1304 -17.3321,0 -26.8773,-7.5357 -9.4196,-7.6613 -9.4196,-24.1142 0,-4.019 0.5024,-7.9125 0.628,-4.019 1.6327,-9.0428 l 17.4577,-75.3568 h -15.9505 l 4.2702,-19.0904 h 15.9505 l 9.4196,-40.3159 h 23.6118 l -9.4196,40.3159 z m 109.6441,54.8849 q 0.628,-3.6423 0.8792,-6.1542 0.2512,-2.5119 0.2512,-5.5261 0,-13.4387 -7.4101,-20.9743 -7.2845,-7.5357 -23.4862,-7.5357 -17.8345,0 -31.6499,11.0523 -13.8154,11.0523 -18.7136,29.138 z m -47.2236,88.6699 q -29.138,0 -45.7165,-13.6899 -16.5785,-13.6898 -16.5785,-40.0647 0,-38.5576 24.3654,-66.0628 24.3654,-27.6308 60.2854,-27.6308 23.863,0 36.5481,11.9315 12.6851,11.8059 12.6851,33.2826 0,3.7678 -1.1304,11.9315 -1.0047,8.1636 -3.391,18.9648 h -103.3645 q -0.7536,3.6422 -1.1303,7.1589 -0.2512,3.5166 -0.2512,6.5309 0,17.7088 10.8011,27.882 10.8012,10.0476 30.6451,10.0476 13.8155,0 28.3844,-5.4006 14.6946,-5.4006 24.6166,-12.1827 h 1.3815 l -5.1493,25.4958 q -6.2798,2.2607 -11.3036,4.1446 -5.0238,1.8839 -12.8106,3.7678 -7.7869,1.8839 -13.8154,2.8887 -6.0286,1.0048 -15.0714,1.0048 z m 215.7717,-3.2655 h -28.6355 l -44.8374,-61.667 -20.3463,16.4529 -10.2988,45.2141 h -23.863 l 45.2141,-195.4254 h 23.863 l -29.138,125.5947 82.2646,-70.4586 h 31.0219 l -80.0039,66.314 z m 162.6452,-108.2627 q 0,3.0143 -0.628,8.1637 -0.5024,5.1494 -1.5071,9.0428 l -21.0999,91.0562 h -23.6118 l 18.4624,-79.8782 q 1.5071,-6.6566 2.2607,-11.5548 0.8792,-5.0238 0.8792,-9.9219 0,-10.55 -5.275,-15.825 -5.1494,-5.4006 -18.7136,-5.4006 -9.5452,0 -21.0999,5.275 -11.4292,5.275 -22.3559,12.5595 l -24.2398,104.746 h -23.6118 l 32.4034,-140.2893 h 23.6119 l -3.6423,15.5737 q 13.4386,-9.4196 25.1189,-14.4434 11.806,-5.0237 24.2398,-5.0237 18.3369,0 28.51,9.294 10.2988,9.1684 10.2988,26.626 z m 91.0562,-80.0038 -5.6518,24.491 h -26.6261 l 5.6518,-24.491 z m -12.5595,47.9772 -32.4034,140.2893 h -23.6119 l 32.4035,-140.2893 z m 143.178,140.2893 h -28.6356 l -44.8373,-61.667 -20.3464,16.4529 -10.2988,45.2141 h -23.8629 l 45.214,-195.4254 h 23.863 l -29.1379,125.5947 82.2645,-70.4586 h 31.0219 l -80.0038,66.314 z"
       id="path3" />
  </g>
</svg>
